# xmcd
#
# Track frame offsets:
#	150
#	17168
#	33534
#	50811
#	69977
#	88525
#	104844
#	119966
#	136226
#	155092
#	170153
#
# Disc length: 2499 seconds
#
# Revision: 1
# Processed by: cddbd v1.5.2PL0 Copyright (c) Steve Scherf et al.
# Submitted via: EasyCDDAExtractor 7.0.3.1
#
DISCID=a709c10b
DTITLE=Colton James - Little Ride in the Country
DYEAR=1900
DGENRE=country
TTITLE0=Gonna Raise Cain
TTITLE1=Little Ride in the Country
TTITLE2=I See Me
TTITLE3=She's Good For Me
TTITLE4=Brave Men
TTITLE5=Nothing But Time
TTITLE6=Date With Dixie
TTITLE7=What Keeps Her Strong
TTITLE8=Phat Bottom Girls
TTITLE9=I'm All You'll Ever Need
TTITLE10=57 Chevy
EXTD=
EXTT0=
EXTT1=
EXTT2=
EXTT3=
EXTT4=
EXTT5=
EXTT6=
EXTT7=
EXTT8=
EXTT9=
EXTT10=
PLAYORDER=
